<svg width="34" height="36" viewBox="0 0 34 36" fill="none" xmlns="http://www.w3.org/2000/svg">
<path d="M10.6132 0.151035C14.6484 -0.113085 18.2232 -0.201947 22.0678 1.37008C22.3624 1.4899 22.654 1.61717 22.9425 1.75217C23.2311 1.88686 23.5162 2.02901 23.7977 2.17856C24.0791 2.32719 24.3567 2.48323 24.6305 2.64672C24.9043 2.81052 25.1736 2.98079 25.4382 3.15729C25.7035 3.3344 25.9644 3.51832 26.2208 3.70875C26.4766 3.89918 26.7275 4.09614 26.9738 4.29926C27.2201 4.50176 27.4612 4.71107 27.697 4.92688C27.9329 5.14208 28.1633 5.36316 28.3882 5.58981C28.6134 5.81708 28.8328 6.05023 29.046 6.28834C29.2593 6.52645 29.4664 6.76984 29.6671 7.01847C29.8684 7.26773 30.0636 7.52161 30.2524 7.78047C30.4406 8.03933 30.6226 8.30252 30.7982 8.57066C30.9738 8.8385 31.1427 9.11066 31.3046 9.38716C31.4664 9.66428 31.6212 9.94485 31.769 10.2291C31.9171 10.514 32.0581 10.8019 32.1921 11.0936C32.3261 11.385 32.4522 11.6797 32.5712 11.9779C34.4492 16.7677 34.5682 22.6086 32.3757 27.3129C30.3185 31.728 27.0595 34.0039 22.669 35.5616C19.1964 36.184 15.9114 36.272 12.5572 34.9693C7.41471 32.9728 3.45844 28.1775 1.3859 23.1257C-0.556604 18.3905 -0.429327 13.8856 1.59303 9.19488C3.49454 4.78567 6.21568 1.88283 10.6132 0.151035Z" fill="#FF4B26"/>
</svg>
