<svg width="38" height="34" viewBox="0 0 38 34" fill="none" xmlns="http://www.w3.org/2000/svg">
<path d="M0.188323 14.6566C1.77128 10.9354 3.30316 7.70426 6.43927 4.98081C6.67904 4.7718 6.92406 4.56888 7.17461 4.37218C7.42488 4.17534 7.68028 3.98488 7.94065 3.80102C8.20019 3.61674 8.46456 3.43934 8.73392 3.26859C9.00356 3.09798 9.27691 2.93438 9.55374 2.77768C9.8314 2.62072 10.1132 2.47065 10.3988 2.3276C10.684 2.18511 10.9729 2.04994 11.2652 1.92163C11.557 1.79304 11.8525 1.67216 12.1515 1.55886C12.4499 1.44528 12.7511 1.33926 13.0548 1.24067C13.3592 1.14209 13.6662 1.05135 13.9748 0.968302C14.2835 0.88526 14.5941 0.810047 14.9065 0.742948C15.2198 0.67558 15.5344 0.615769 15.8505 0.563925C16.1664 0.512628 16.4834 0.468766 16.8019 0.432854C17.1201 0.396801 17.4392 0.368698 17.759 0.348844C18.0793 0.329268 18.3996 0.317508 18.7199 0.313707C19.0409 0.30991 19.3615 0.313807 19.6823 0.325646C20.0028 0.337342 20.3228 0.357667 20.6426 0.38582C25.7647 0.868234 31.0323 3.3946 34.2436 7.47203C37.2576 11.2984 37.8202 15.2334 37.232 19.8547C36.2224 23.2351 34.8203 26.2072 32.1457 28.6142C28.0457 32.3049 21.9819 33.6752 16.5383 33.2485C11.4358 32.8482 7.47173 30.7042 4.19601 26.7848C1.11707 23.1001 -0.247756 19.3626 0.188323 14.6566Z" fill="#FCC100"/>
</svg>
